<svg width="28" height="28" viewBox="0 0 28 28" fill="none" xmlns="http://www.w3.org/2000/svg">
<path d="M11.552 15.476L13.9747 16.8746L16.468 15.4346V12.68L13.9467 11.2266L11.552 12.7226V15.476ZM8.88535 13.936V4.63729C6.40844 5.99318 4.56837 8.27374 3.76669 10.9813L8.88669 13.936H8.88535ZM3.33469 13.8106L3.33335 14C3.32942 16.7282 4.37492 19.3534 6.25335 21.332L11.3067 18.4133L3.33469 13.8106ZM11.552 9.57863L19.296 4.73863C17.684 3.81489 15.8579 3.33031 14 3.33329C13.1574 3.33329 12.3387 3.43063 11.552 3.61596V9.57863ZM21.556 6.47196L16.508 9.62529L24.6614 14.3333C24.7088 12.88 24.4578 11.4325 23.9236 10.0801C23.3895 8.72772 22.5837 7.50059 21.556 6.47196ZM19.1347 14.2213V23.352C21.5622 22.0163 23.3767 19.7907 24.196 17.144L19.1347 14.2213ZM8.47735 23.128C10.1423 24.1376 12.0529 24.6699 14 24.6666C14.8494 24.6666 15.676 24.568 16.4667 24.38V18.5133L8.47735 23.1266V23.128ZM14 27.3333C6.63602 27.3333 0.666687 21.364 0.666687 14C0.666687 6.63596 6.63602 0.666626 14 0.666626C21.364 0.666626 27.3334 6.63596 27.3334 14C27.3334 21.364 21.364 27.3333 14 27.3333Z" fill="black"/>
</svg>
